<?xml version="1.0" encoding="iso-8859-1"?>
<!-- Generator: Adobe Illustrator 18.1.1, SVG Export Plug-In . SVG Version: 6.00 Build 0)  -->
<svg version="1.1" id="Capa_1" xmlns="http://www.w3.org/2000/svg" xmlns:xlink="http://www.w3.org/1999/xlink" x="0px" y="0px"
	 viewBox="0 0 21.991 21.991" style="enable-background:new 0 0 21.991 21.991;" xml:space="preserve">
<g>
	<path style="fill:#010002;" d="M17.716,14.327H2.535v6.555h8.49L9.91,19.938l0.946-1.117l1.116,0.947l-0.947,1.114h6.692V14.327z
		 M3.704,20.333l-1.113-0.947l0.945-1.114l1.117,0.946L3.704,20.333z M4.735,17.506l-1.116-0.945l0.947-1.115l1.114,0.947
		L4.735,17.506z M16.341,17.506l-1.114-0.945l0.944-1.115l1.117,0.947L16.341,17.506z M1.905,2.83L1.25,0.754L3.645,0l0.653,2.076
		L1.905,2.83z M17.198,3.939l-0.942,1.802c-1.162-0.065-2.307,0.533-2.881,1.631l-0.918,1.764l-2.532,4.845L8.257,8.666L7.66,6.767
		c-0.373-1.18-1.396-1.971-2.551-2.11L4.501,2.716L2.105,3.469l0.609,1.94C1.847,6.185,1.457,7.418,1.831,8.601l0.595,1.897
		l1.106,3.52H9.91h0.029h6.864l1.07-2.056l0.328-0.628v9.86H2.049V11.071H1.25v10.92H19v-10.92h-0.662l0.455-0.871
		c0.572-1.099,0.406-2.383-0.311-3.296l0.941-1.805L17.198,3.939z M4.546,13.359l-1.151-2.906l3.839-1.534l1.644,4.44H4.546z
		 M16.143,13.292h-4.67L13.869,8.9l3.647,1.706L16.143,13.292z M20.74,2.575l-1.006,1.931l-2.228-1.162l1.007-1.93L20.74,2.575z"/>
</g>
<g>
</g>
<g>
</g>
<g>
</g>
<g>
</g>
<g>
</g>
<g>
</g>
<g>
</g>
<g>
</g>
<g>
</g>
<g>
</g>
<g>
</g>
<g>
</g>
<g>
</g>
<g>
</g>
<g>
</g>
</svg>
